<svg xmlns="http://www.w3.org/2000/svg" version="1.1" viewBox="-5.0 -10.0 110.0 135.0">
 <path d="m96.875 50c0 25.848-21.027 46.875-46.875 46.875s-46.875-21.027-46.875-46.875 21.027-46.875 46.875-46.875c0.86328 0 1.5625 0.69922 1.5625 1.5625s-0.69922 1.5625-1.5625 1.5625c-24.125 0-43.75 19.625-43.75 43.75s19.625 43.75 43.75 43.75 43.75-19.625 43.75-43.75c0-0.86328 0.69922-1.5625 1.5625-1.5625s1.5625 0.69922 1.5625 1.5625zm-18.707-37.188c-0.019531-0.10156-0.011719-0.20703-0.011719-0.3125s-0.007812-0.21094 0.015625-0.3125c0.003906-0.023438-0.003906-0.042969 0.003906-0.066406 0.019531-0.070313 0.0625-0.125 0.089844-0.19141 0.042969-0.10156 0.078125-0.20313 0.14062-0.29297 0.058594-0.089844 0.13281-0.15625 0.20703-0.23047 0.066407-0.066406 0.12891-0.13281 0.20703-0.1875 0.10156-0.070312 0.21094-0.10938 0.32422-0.15234 0.058594-0.023437 0.10547-0.066406 0.16797-0.082031l0.79297-0.19922c2.8047-0.69922 4.9805-2.8789 5.6836-5.6836l0.19922-0.79297c0.019531-0.070313 0.0625-0.125 0.089844-0.19141 0.042969-0.10156 0.078125-0.20313 0.14062-0.29688 0.058594-0.085937 0.12891-0.15234 0.20312-0.22266 0.070313-0.070312 0.13281-0.13672 0.21484-0.19531 0.09375-0.0625 0.19531-0.10156 0.30078-0.14453 0.066406-0.027343 0.11719-0.070312 0.1875-0.089843 0.019531-0.003907 0.039062 0.003906 0.0625 0 0.10156-0.019531 0.20703-0.015625 0.31641-0.015625 0.10547 0 0.20703-0.007813 0.30469 0.015625 0.023437 0.003906 0.046875-0.003907 0.070312 0.003906 0.074219 0.019531 0.125 0.066406 0.19531 0.09375 0.10156 0.042969 0.20312 0.078125 0.29297 0.14062 0.082031 0.054688 0.14844 0.125 0.21875 0.19531 0.070312 0.070313 0.14062 0.13672 0.19922 0.22266 0.0625 0.09375 0.097656 0.19141 0.14062 0.29688 0.027344 0.066406 0.074219 0.11719 0.089844 0.19141l0.19922 0.79297c0.70312 2.8047 2.8789 4.9844 5.6836 5.6836l0.79297 0.19922c0.066406 0.015625 0.11719 0.0625 0.17969 0.085938 0.10938 0.042969 0.21484 0.082031 0.30859 0.14844 0.082031 0.054688 0.14844 0.125 0.21875 0.19531 0.070312 0.070312 0.14062 0.13672 0.19922 0.21875 0.0625 0.09375 0.10156 0.19531 0.14453 0.30078 0.027343 0.066406 0.070312 0.11719 0.089843 0.1875 0.003907 0.023438 0 0.042969 0.003907 0.066406 0.015624 0.097656 0.011718 0.20312 0.011718 0.30859s0.007813 0.21094-0.015625 0.3125c-0.003906 0.023438 0.003907 0.042969-0.003906 0.066406-0.023437 0.10156-0.078125 0.18359-0.12109 0.27734-0.027343 0.058594-0.042969 0.12109-0.074219 0.17188-0.10156 0.16016-0.22266 0.30078-0.37109 0.41406-0.019531 0.015624-0.050781 0.023437-0.070313 0.039062-0.13672 0.09375-0.28125 0.16406-0.44141 0.21094-0.019531 0.003906-0.035156 0.019531-0.054688 0.027343l-0.79687 0.19531c-2.8047 0.69922-4.9805 2.8789-5.6836 5.6836l-0.19922 0.79297c-0.023437 0.10156-0.078125 0.18359-0.12109 0.27344-0.027343 0.058594-0.042969 0.12109-0.078125 0.17578-0.10156 0.16016-0.22266 0.30078-0.37109 0.41016-0.023437 0.019531-0.054687 0.027344-0.078124 0.042969-0.13281 0.089844-0.27734 0.16016-0.43359 0.20703-0.019532 0.007813-0.035156 0.019531-0.054688 0.027344-0.125 0.03125-0.24609 0.042969-0.37109 0.046875h-0.007812-0.007812c-0.12109 0-0.24609-0.015625-0.37109-0.046875-0.019532-0.003906-0.035156-0.019531-0.054688-0.027344-0.16016-0.046875-0.30859-0.11719-0.44531-0.21094-0.019532-0.015625-0.046875-0.019532-0.066406-0.035156-0.14844-0.11328-0.26953-0.25391-0.37109-0.41406-0.035156-0.054687-0.046875-0.11328-0.074219-0.17188-0.042969-0.089844-0.097656-0.17578-0.12109-0.27734l-0.19922-0.79297c-0.70312-2.8047-2.8789-4.9844-5.6836-5.6836l-0.79297-0.19922c-0.023438-0.003906-0.039062-0.019531-0.058594-0.027344-0.16016-0.046875-0.30469-0.11719-0.44141-0.21094-0.019531-0.011719-0.050781-0.019532-0.070312-0.035156-0.14844-0.11328-0.26953-0.25391-0.37109-0.41406-0.035156-0.054687-0.046875-0.11719-0.074219-0.17188-0.042969-0.089844-0.097656-0.17578-0.12109-0.27734-0.007812-0.023437 0-0.042968-0.007812-0.066406zm5.7734-0.3125c1.4492 0.89453 2.6641 2.1094 3.5586 3.5586 0.89453-1.4492 2.1094-2.6641 3.5586-3.5586-1.4492-0.89453-2.6641-2.1094-3.5586-3.5586-0.89062 1.4492-2.1094 2.6641-3.5586 3.5586zm-36.082 4.8008 4.082-1.6328c1.9727-0.78906 3.5625-2.375 4.3516-4.3516l1.6328-4.082c0.003907-0.007813 0.007813-0.011719 0.011719-0.015625 0.054688-0.13281 0.14453-0.24219 0.23438-0.35547 0.039063-0.046875 0.058594-0.10938 0.10156-0.14844 0.054687-0.054688 0.12891-0.085938 0.19141-0.12891 0.10156-0.074219 0.19531-0.15625 0.3125-0.20313 0.007812-0.003906 0.011718-0.007812 0.019531-0.011718 0.078125-0.03125 0.16406-0.027344 0.24219-0.042969 0.11328-0.027344 0.22266-0.0625 0.33984-0.0625 0.10547 0 0.20703 0.035156 0.30859 0.054687 0.089844 0.019532 0.17969 0.015626 0.26953 0.050782 0.007813 0.003906 0.011719 0.011718 0.019531 0.011718 0.11328 0.046876 0.20703 0.12891 0.30469 0.19922 0.0625 0.046875 0.14062 0.078125 0.19922 0.13281 0.042969 0.042968 0.066406 0.10547 0.10156 0.15234 0.089844 0.11328 0.17969 0.22266 0.23438 0.35547 0.003906 0.007813 0.007813 0.011719 0.011719 0.015625l1.6328 4.082c0.78906 1.9766 2.3789 3.5625 4.3516 4.3516l4.082 1.6328c0.007813 0.003906 0.011719 0.011718 0.019531 0.011718 0.10547 0.042969 0.1875 0.12109 0.28125 0.18359 0.074219 0.050781 0.16016 0.085938 0.22266 0.14844 0.039062 0.039062 0.058593 0.09375 0.09375 0.14062 0.09375 0.11719 0.18359 0.23047 0.24219 0.36719 0.003906 0.007812 0.007813 0.011719 0.011719 0.015625 0.03125 0.074219 0.023437 0.14844 0.039063 0.22266 0.027343 0.11719 0.066406 0.23438 0.066406 0.35547 0 0.125-0.035156 0.23828-0.066406 0.35547-0.019532 0.074219-0.011719 0.15234-0.039063 0.22266-0.003906 0.007813-0.007813 0.011719-0.011719 0.019531-0.011718 0.027344-0.03125 0.050782-0.046875 0.078125-0.070312 0.14062-0.15625 0.26953-0.25781 0.38281-0.035157 0.039062-0.078125 0.070312-0.11719 0.10547-0.10938 0.09375-0.22656 0.17188-0.35547 0.23438-0.03125 0.015624-0.050781 0.042968-0.082031 0.054687l-4.082 1.6328c-1.9727 0.78906-3.5625 2.375-4.3516 4.3516l-1.6328 4.082c-0.003906 0.007813-0.007813 0.011719-0.011719 0.019531-0.011718 0.027344-0.03125 0.050782-0.046875 0.078126-0.070312 0.14062-0.15625 0.26953-0.25781 0.38281-0.035157 0.039062-0.078125 0.070312-0.11719 0.10547-0.10938 0.09375-0.22656 0.17188-0.35547 0.23438-0.03125 0.015625-0.050781 0.042968-0.082031 0.054687-0.019531 0.007813-0.035156 0.003907-0.054687 0.011719-0.16797 0.0625-0.34375 0.10156-0.52734 0.10156s-0.35547-0.039062-0.52734-0.10156c-0.019531-0.007812-0.035156-0.003906-0.054687-0.011719-0.03125-0.011719-0.050781-0.039062-0.082031-0.054687-0.12891-0.0625-0.24609-0.13672-0.35547-0.23438-0.039063-0.035157-0.082031-0.066407-0.11719-0.10547-0.10547-0.10938-0.19141-0.23828-0.25781-0.38281-0.011719-0.027344-0.035157-0.046876-0.046875-0.078126-0.003906-0.007812-0.007813-0.011718-0.011719-0.019531l-1.6328-4.082c-0.78906-1.9766-2.3789-3.5625-4.3516-4.3516l-4.082-1.6328c-0.03125-0.011719-0.050781-0.039063-0.082031-0.054687-0.12891-0.0625-0.24609-0.13672-0.35547-0.23438-0.039063-0.035156-0.082031-0.066406-0.11719-0.10547-0.10547-0.10938-0.19141-0.23828-0.25781-0.38281-0.011719-0.027343-0.035157-0.046875-0.046875-0.078125-0.003906-0.007812-0.007813-0.011718-0.011719-0.019531-0.03125-0.074219-0.023437-0.14844-0.039063-0.22266-0.027343-0.11719-0.066406-0.23438-0.066406-0.35547 0-0.125 0.035156-0.23828 0.066406-0.35547 0.019532-0.074219 0.011719-0.15234 0.039063-0.22266 0.003906-0.007813 0.007813-0.011719 0.011719-0.015625 0.054687-0.12891 0.14453-0.24219 0.23047-0.35156 0.039063-0.046876 0.0625-0.10938 0.10547-0.15234 0.054688-0.054688 0.12891-0.082032 0.19141-0.12891 0.10156-0.074219 0.19922-0.15625 0.31641-0.20703 0.007812-0.007812 0.011718-0.015625 0.019531-0.015625zm4.7852 1.4492 0.45312 0.18359c2.7656 1.1055 4.9883 3.3281 6.0938 6.0938l0.17969 0.45312 0.17969-0.45312c1.1094-2.7656 3.3281-4.9883 6.0938-6.0938l0.45312-0.18359-0.45312-0.18359c-2.7656-1.1055-4.9883-3.3281-6.0938-6.0938l-0.17969-0.45312-0.17969 0.45312c-1.1094 2.7656-3.3281 4.9883-6.0938 6.0938zm16.918 18.68c2.6133-0.74609 4.6172-2.7539 5.3633-5.3672l1.6953-5.9297c0.015625-0.058593 0.058594-0.097656 0.078125-0.15234 0.042969-0.10156 0.085937-0.19141 0.14844-0.28125 0.054688-0.082031 0.11719-0.15234 0.18359-0.21875 0.074219-0.074219 0.14844-0.13672 0.23438-0.19531s0.17578-0.10156 0.27344-0.14062c0.054688-0.023437 0.097657-0.0625 0.15625-0.082031 0.039063-0.011719 0.082032 0 0.12109-0.007812 0.10156-0.019532 0.20312-0.023438 0.30859-0.023438s0.20312 0.003906 0.30469 0.023438c0.039062 0.007812 0.082031-0.003907 0.12109 0.007812 0.058594 0.015625 0.10156 0.058594 0.15625 0.082031 0.097657 0.039063 0.1875 0.082031 0.27734 0.14062 0.085937 0.058594 0.15625 0.12109 0.23047 0.19141 0.070312 0.070313 0.13281 0.14063 0.1875 0.22266 0.058594 0.089843 0.10547 0.17969 0.14453 0.28125 0.023437 0.054687 0.0625 0.097656 0.078125 0.15234l1.6953 5.9297c0.74609 2.6133 2.75 4.6172 5.3633 5.3633l5.9297 1.6953c0.058594 0.015625 0.10156 0.058594 0.15625 0.078125 0.097657 0.039062 0.1875 0.085937 0.27734 0.14453 0.085937 0.058594 0.15625 0.12109 0.22656 0.19141 0.070312 0.070313 0.13281 0.14062 0.1875 0.22266 0.058593 0.089844 0.10547 0.17969 0.14453 0.28125 0.023437 0.054688 0.0625 0.097657 0.078125 0.15234 0.011718 0.039063 0 0.078125 0.007812 0.12109 0.03125 0.10547 0.03125 0.20703 0.035156 0.3125 0 0.10547-0.003906 0.20703-0.023437 0.30859-0.007813 0.039062 0.003906 0.078125-0.007813 0.12109-0.019531 0.074218-0.0625 0.13281-0.09375 0.19922-0.027343 0.0625-0.050781 0.125-0.085937 0.18359-0.074219 0.12109-0.16406 0.22266-0.26953 0.31641-0.035156 0.03125-0.058594 0.070313-0.097656 0.097656-0.15234 0.11719-0.32031 0.20313-0.50391 0.26172-0.007812 0.003907-0.015625 0.011719-0.023437 0.011719l-5.9297 1.6953c-2.6133 0.74609-4.6172 2.7539-5.3633 5.3672l-1.6953 5.9297c-0.019531 0.074218-0.0625 0.13281-0.09375 0.19922-0.027343 0.0625-0.050781 0.125-0.089843 0.18359-0.074219 0.12109-0.16406 0.22266-0.26562 0.31641-0.035156 0.03125-0.0625 0.070313-0.097656 0.10156-0.15234 0.11719-0.32031 0.20312-0.50391 0.26172-0.007812 0.003906-0.015625 0.011718-0.023437 0.011718-0.13672 0.039063-0.27344 0.054688-0.40625 0.058594-0.007813 0-0.011719 0.003906-0.019532 0.003906-0.007812 0-0.011718-0.003906-0.019531-0.003906-0.13672-0.003906-0.27344-0.019531-0.40625-0.058594-0.007812-0.003906-0.015625-0.011718-0.023437-0.011718-0.18359-0.054688-0.35156-0.14453-0.50391-0.25781-0.039063-0.03125-0.0625-0.070313-0.097657-0.10156-0.10156-0.09375-0.19141-0.19531-0.26562-0.31641-0.035156-0.058594-0.058594-0.12109-0.089844-0.1875s-0.074218-0.125-0.09375-0.19922l-1.6953-5.9297c-0.74609-2.6133-2.75-4.6172-5.3633-5.3633l-5.9297-1.6953c-0.007812-0.003906-0.015625-0.011718-0.023437-0.011718-0.18359-0.054688-0.35156-0.14453-0.50391-0.26172-0.039063-0.027344-0.0625-0.066407-0.097657-0.097657-0.10156-0.09375-0.19141-0.19531-0.26562-0.31641-0.035156-0.058594-0.058594-0.12109-0.085937-0.18359-0.03125-0.066406-0.074219-0.125-0.09375-0.19922-0.011719-0.039063 0-0.078125-0.007813-0.12109-0.035156-0.10547-0.039062-0.20703-0.039062-0.3125s0.003906-0.20703 0.023437-0.30859c0.007813-0.039062-0.003906-0.078125 0.007813-0.12109 0.015625-0.058593 0.058594-0.097656 0.078125-0.15234 0.039062-0.10156 0.085937-0.19141 0.14453-0.28125 0.054688-0.082031 0.11719-0.15234 0.1875-0.22266 0.070312-0.070312 0.14453-0.13281 0.22656-0.19141 0.089844-0.058594 0.17969-0.10547 0.28125-0.14453 0.054688-0.023437 0.09375-0.0625 0.15234-0.078125zm0.1875 3.1953 0.67188 0.19141c3.6602 1.0469 6.4688 3.8516 7.5117 7.5117l0.19141 0.66797 0.19141-0.66797c1.0469-3.6602 3.8555-6.4648 7.5117-7.5117l0.67578-0.19141-0.67188-0.19141c-3.6602-1.0469-6.4688-3.8516-7.5117-7.5117l-0.19141-0.66797-0.19141 0.66797c-1.0469 3.6602-3.8555 6.4648-7.5117 7.5117z"/>
<text x="0.0" y="117.5" font-size="5.0" font-weight="bold" font-family="Arbeit Regular, Helvetica, Arial-Unicode, Arial, Sans-serif" fill="#000000">Created by FAUZUL KABIR</text><text x="0.0" y="122.5" font-size="5.0" font-weight="bold" font-family="Arbeit Regular, Helvetica, Arial-Unicode, Arial, Sans-serif" fill="#000000">from Noun Project</text></svg>